<?xml version="1.0" encoding="utf-8"?>
<!-- Generator: Adobe Illustrator 25.0.1, SVG Export Plug-In . SVG Version: 6.00 Build 0)  -->
<svg version="1.1" id="Layer_1" xmlns="http://www.w3.org/2000/svg" xmlns:xlink="http://www.w3.org/1999/xlink" x="0px" y="0px"
	 viewBox="0 0 160 65" style="enable-background:new 0 0 160 65;" xml:space="preserve">
<style type="text/css">
	.st0{fill:#FFFFFF;}
	.st1{fill:url(#SVGID_1_);}
</style>
<g>
	<g>
		<path class="st0" d="M45.4,40.7c-0.1-0.5-0.2-1-0.4-1.5c-0.1-0.2-0.2-0.5-0.3-0.7l-0.1-0.2l-0.1-0.1l-0.1-0.3l-2.4-4.2l-2.4-4.1
			l-1.2-2.1l-1.2-2.1l-2.4-4.1l-0.6-1l-0.3-0.5l-0.1-0.1l0-0.1l-0.1-0.1l-0.1-0.2l-0.1-0.1l-0.1-0.1c-0.6-0.8-1.4-1.5-2.4-1.9
			c-0.5-0.2-1-0.3-1.5-0.4c-0.1,0-0.3,0-0.4,0c-0.1,0-0.3,0-0.4,0l-0.4,0c-0.1,0-0.2,0-0.4,0C27,17,26,17.4,25.2,18
			c-0.4,0.3-0.8,0.6-1.1,1c-0.2,0.2-0.3,0.4-0.5,0.6c0,0.1-0.1,0.1-0.1,0.1l-0.1,0.1L23.4,20l-1.2,1.8c0.8,0,1.7,0.1,2.5,0.1
			l0.5-0.6l0.2-0.2l0.1-0.1c0,0,0.1-0.1,0.1-0.1c0.1-0.1,0.2-0.2,0.3-0.4c0.2-0.2,0.5-0.4,0.7-0.6c0.5-0.3,1.1-0.5,1.7-0.6
			c0.1,0,0.2,0,0.2,0c0.1,0,0.1,0,0.2,0l0.2,0c0.1,0,0.1,0,0.2,0c0.3,0,0.5,0.1,0.8,0.3c0.5,0.2,0.9,0.6,1.2,1.1l0,0l0,0l0.1,0.1
			l0,0c0,0,0,0,0,0l0,0l0.1,0.1l0.3,0.5l0.6,1.1l2.3,4.2l1.1,2.1l1.1,2.1l2.3,4.2l2.3,4.2l0.1,0.3l0.1,0.1l0,0.1
			c0.1,0.1,0.1,0.2,0.2,0.4c0.1,0.3,0.2,0.5,0.2,0.8c0.1,0.5,0,1.1-0.2,1.6c-0.2,0.5-0.5,0.9-0.8,1.2C41,44,41,44,40.9,44.1
			l-0.1,0.1c0,0-0.1,0-0.1,0.1c-0.1,0.1-0.2,0.1-0.3,0.2c-0.2,0.1-0.5,0.2-0.7,0.2c-0.1,0-0.3,0-0.4,0.1c-0.1,0-0.1,0-0.2,0l-0.1,0
			l-0.1,0l-1.2,0l-2.4,0c-1.6,0-3.2,0-4.8,0c-1.6,0-3.2,0-4.8,0l-4.8,0l-2.4,0l-0.5,0c0,0-0.1,0-0.1,0l0,0l-0.1,0l-0.1,0
			c-0.3,0-0.6-0.1-0.8-0.2c-0.1-0.1-0.3-0.1-0.4-0.2c-0.1-0.1-0.2-0.1-0.3-0.2c-0.1-0.1-0.2-0.1-0.3-0.2c0,0-0.1-0.1-0.1-0.1
			c0,0-0.1-0.1-0.1-0.1c-0.2-0.2-0.3-0.4-0.4-0.6l0-0.1c0,0,0-0.1,0-0.1c0,0,0-0.1,0-0.1l0-0.1c0-0.1-0.1-0.3-0.1-0.4
			c0-0.1-0.1-0.3-0.1-0.4c0-0.1,0-0.3,0-0.4c0-0.1,0-0.3,0-0.5c0-0.1,0-0.2,0-0.2l0-0.1l0,0l0,0l0-0.1c0.1-0.6,0.2-1.2,0.2-1.8
			c-0.8,0-1.6,0.1-2.5,0.1c-0.1,0.3-0.3,0.7-0.4,1l-0.1,0.1l0,0l0,0l0,0.1c0,0.1-0.1,0.2-0.1,0.4c-0.1,0.2-0.1,0.5-0.2,0.7
			c-0.1,0.5-0.1,1,0,1.5c0,0.1,0,0.3,0.1,0.4c0,0.1,0,0.3,0.1,0.4l0,0.2c0,0.1,0,0.1,0.1,0.2c0,0.1,0,0.1,0.1,0.2l0.1,0.2
			c0.1,0.3,0.2,0.5,0.4,0.8c0.1,0.1,0.1,0.2,0.2,0.4c0,0.1,0.1,0.1,0.1,0.2l0.1,0.2c0.1,0.1,0.2,0.2,0.3,0.3
			c0.1,0.1,0.2,0.2,0.3,0.3c0.2,0.2,0.4,0.4,0.6,0.5c0.2,0.2,0.4,0.3,0.7,0.4c0.2,0.1,0.5,0.2,0.7,0.3c0.5,0.2,1,0.3,1.5,0.5
			c0.1,0,0.1,0,0.2,0l0.1,0l0.1,0c0.2,0,0.3,0,0.5,0l0.1,0l0.1,0l0.1,0l0.3,0l2.4,0l4.8,0c1.6,0,3.2,0,4.8,0c1.6,0,3.2,0,4.8,0
			l2.4,0l1.2,0l0.1,0l0.2,0c0.1,0,0.3,0,0.4,0c0.3,0,0.5-0.1,0.8-0.1c0.5-0.1,1-0.3,1.5-0.5c0.2-0.1,0.5-0.3,0.7-0.4
			c0.1,0,0.1-0.1,0.2-0.1l0.2-0.1c0.1-0.1,0.2-0.2,0.3-0.3c0.4-0.4,0.8-0.8,1.1-1.2c0.3-0.5,0.6-1,0.7-1.5
			C45.5,42.9,45.5,41.8,45.4,40.7z"/>
		<path class="st0" d="M21.7,40.8H24v-9.1l3.8,3.2l3.5-3.4c0,2.1,0.1,4.2,0.1,6.3c-0.4,0.4-0.8,0.8-1.2,1.2
			c-0.1-1.5-0.1-3.1-0.2-4.6c-0.8,0.7-1.5,1.3-2.3,2c-0.8-0.7-1.6-1.3-2.4-2c0,2.2,0,4.4,0,6.6H31c1.4,0,2.7-0.6,3.6-1.5
			c0.9-0.9,1.5-2.2,1.5-3.6c0-2.8-2.3-5.1-5.1-5.1h-9.3V40.8z"/>
		<circle class="st0" cx="28.5" cy="24.5" r="2"/>
		<polygon class="st0" points="23.8,23.7 3.8,23.7 5.1,26.1 22.5,26.1 		"/>
		<polygon class="st0" points="20.8,27.3 6.8,27.3 7.7,29.7 19.9,29.7 		"/>
		<polygon class="st0" points="18.4,30.9 9.2,30.9 9.8,33.3 17.8,33.3 		"/>
		<polygon class="st0" points="16.4,34.4 11.3,34.4 11.6,36.9 16,36.9 		"/>
	</g>
	<g>
		<path class="st0" d="M64,27.1c0,0.9-0.2,1.6-0.5,2.3c-0.3,0.7-0.7,1.3-1.3,1.7S61,32,60.3,32.2c-0.7,0.3-1.5,0.4-2.3,0.4h-3.7v-11
			h3.7c0.8,0,1.5,0.1,2.3,0.4s1.3,0.6,1.9,1.1c0.5,0.5,1,1,1.3,1.7C63.8,25.5,64,26.2,64,27.1z M61.3,27.1c0-0.5-0.1-1-0.3-1.4
			c-0.2-0.4-0.4-0.7-0.8-1c-0.3-0.3-0.7-0.5-1.1-0.6c-0.4-0.1-0.9-0.2-1.4-0.2h-0.8v6.4h0.8c0.5,0,0.9-0.1,1.4-0.2
			c0.4-0.1,0.8-0.3,1.1-0.6c0.3-0.3,0.6-0.6,0.8-1S61.3,27.6,61.3,27.1z"/>
		<path class="st0" d="M68.1,22.2c0,0.1,0,0.2-0.1,0.4s-0.2,0.3-0.4,0.4c-0.1,0.1-0.3,0.3-0.4,0.3c-0.1,0.1-0.3,0.1-0.4,0.1
			s-0.2,0-0.4-0.1c-0.1-0.1-0.3-0.2-0.4-0.3s-0.2-0.3-0.3-0.4s-0.1-0.3-0.1-0.4s0-0.2,0.1-0.4s0.2-0.3,0.3-0.4
			c0.1-0.1,0.3-0.3,0.4-0.4s0.3-0.1,0.4-0.1s0.2,0,0.4,0.1s0.3,0.2,0.4,0.4c0.1,0.1,0.3,0.3,0.4,0.4S68.1,22.1,68.1,22.2z
			 M65.6,32.6v-7.8h2.6v7.8H65.6z"/>
		<path class="st0" d="M77,33.9c0,0.4-0.1,0.8-0.3,1.1c-0.2,0.3-0.4,0.6-0.8,0.9c-0.3,0.3-0.7,0.5-1.2,0.6c-0.5,0.1-1,0.2-1.5,0.2
			c-0.6,0-1.1-0.1-1.6-0.2c-0.5-0.2-0.9-0.4-1.2-0.6c-0.3-0.3-0.6-0.6-0.8-0.9s-0.3-0.8-0.3-1.2c0-0.6,0.1-1,0.4-1.4
			c0.3-0.4,0.6-0.6,1.1-0.8l-0.9-0.9c0-0.3,0.1-0.5,0.3-0.7c0.2-0.2,0.4-0.4,0.6-0.5c-0.3-0.2-0.6-0.5-0.8-0.8
			c-0.2-0.4-0.3-0.8-0.3-1.2c0-0.4,0.1-0.8,0.2-1.2c0.1-0.4,0.4-0.7,0.6-0.9c0.3-0.3,0.6-0.5,1-0.6c0.4-0.1,0.8-0.2,1.4-0.2
			c0.2,0,0.4,0,0.6,0c0.2,0,0.4,0.1,0.5,0.1c0.2,0,0.4,0.1,0.5,0.1c0.2,0,0.4,0,0.6,0c0.3,0,0.5,0,0.8-0.1c0.2-0.1,0.4-0.1,0.6-0.2
			l0.2,2c-0.1,0.1-0.2,0.1-0.3,0.1c-0.2,0-0.3,0-0.4,0c0.1,0.2,0.1,0.4,0.1,0.7c0,0.4-0.1,0.7-0.2,1c-0.1,0.3-0.3,0.6-0.5,0.8
			c-0.2,0.2-0.5,0.4-0.8,0.6s-0.7,0.2-1,0.3c-0.2,0-0.3,0-0.4,0.1s-0.2,0.1-0.2,0.2c0,0.1,0.1,0.2,0.2,0.2l1.3,0.4
			c0.8,0.3,1.3,0.6,1.8,1.1C76.8,32.6,77,33.2,77,33.9z M74.7,33.9c0-0.2-0.1-0.4-0.2-0.6c-0.1-0.2-0.4-0.3-0.6-0.4l-1-0.3
			c-0.3,0-0.6,0.1-0.8,0.3c-0.2,0.2-0.3,0.5-0.3,0.8c0,0.3,0.1,0.6,0.4,0.8c0.3,0.2,0.6,0.3,1.2,0.3c0.5,0,0.9-0.1,1.1-0.3
			S74.7,34.2,74.7,33.9z M74.2,27.3c0-0.3-0.1-0.5-0.3-0.7c-0.2-0.2-0.5-0.3-0.8-0.3c-0.3,0-0.6,0.1-0.8,0.3
			C72.1,26.8,72,27,72,27.3s0.1,0.5,0.3,0.7c0.2,0.2,0.5,0.3,0.8,0.3c0.3,0,0.6-0.1,0.8-0.3C74.1,27.9,74.2,27.6,74.2,27.3z"/>
		<path class="st0" d="M81,22.2c0,0.1,0,0.2-0.1,0.4s-0.2,0.3-0.4,0.4c-0.1,0.1-0.3,0.3-0.4,0.3c-0.1,0.1-0.3,0.1-0.4,0.1
			s-0.2,0-0.4-0.1c-0.1-0.1-0.3-0.2-0.4-0.3s-0.2-0.3-0.3-0.4s-0.1-0.3-0.1-0.4s0-0.2,0.1-0.4s0.2-0.3,0.3-0.4
			c0.1-0.1,0.3-0.3,0.4-0.4s0.3-0.1,0.4-0.1s0.2,0,0.4,0.1s0.3,0.2,0.4,0.4c0.1,0.1,0.3,0.3,0.4,0.4S81,22.1,81,22.2z M78.5,32.6
			v-7.8H81v7.8H78.5z"/>
		<path class="st0" d="M88.2,26.8H86v2.8c0,0.3,0.1,0.5,0.3,0.7c0.2,0.2,0.4,0.2,0.7,0.2c0.3,0,0.6,0,0.8-0.1l-0.2,2.1
			c-0.3,0.1-0.7,0.2-1.2,0.2c-0.4,0-0.8-0.1-1.2-0.2s-0.7-0.3-0.9-0.6c-0.3-0.2-0.5-0.5-0.6-0.9c-0.1-0.3-0.2-0.7-0.2-1.1v-3.2h-1.3
			v-2.1h1.4v-1.5l2.4-0.9v2.4h2.4L88.2,26.8z"/>
		<path class="st0" d="M95.9,32.8c-0.8-0.1-1.3-0.4-1.7-0.9c-0.3,0.3-0.6,0.5-1,0.7c-0.4,0.1-0.8,0.2-1.2,0.2
			c-0.4,0-0.8-0.1-1.1-0.2c-0.3-0.1-0.6-0.3-0.9-0.5c-0.3-0.2-0.5-0.5-0.6-0.8s-0.2-0.7-0.2-1.1c0-0.7,0.2-1.3,0.8-1.8
			s1.1-0.7,1.9-0.8l1.6-0.2v-0.3c0-0.2-0.1-0.4-0.3-0.6c-0.2-0.1-0.5-0.2-0.9-0.2c-0.4,0-0.9,0.1-1.3,0.2s-0.7,0.2-1,0.4l-0.2-1.9
			c0.3-0.2,0.7-0.3,1.2-0.4c0.5-0.1,1-0.2,1.4-0.2c1.1,0,2,0.3,2.6,0.8c0.6,0.5,0.9,1.3,0.9,2.3v2.2c0,0.3,0.1,0.6,0.2,0.8
			c0.2,0.2,0.4,0.3,0.7,0.4L95.9,32.8z M93.5,29.2l-1.1,0.1c-0.4,0-0.6,0.2-0.8,0.4c-0.2,0.2-0.2,0.4-0.2,0.7c0,0.2,0.1,0.4,0.2,0.5
			S92,31,92.2,31c0.3,0,0.6-0.1,0.9-0.3s0.4-0.5,0.4-0.8V29.2z"/>
		<path class="st0" d="M100.4,32.9c-0.3,0-0.5-0.1-0.8-0.2c-0.3-0.1-0.5-0.3-0.8-0.6c-0.2-0.2-0.4-0.5-0.6-0.9
			c-0.1-0.3-0.2-0.7-0.2-1.2v-9.8h2.5v9.6c0,0.4,0.1,0.7,0.3,0.9c0.2,0.2,0.4,0.3,0.7,0.4L100.4,32.9z"/>
		<path class="st0" d="M117.3,32.6l-0.4-4.1c0-0.3,0-0.7-0.1-1c0-0.3,0-0.7,0-1h0c-0.1,0.4-0.3,0.7-0.4,1.1c-0.2,0.4-0.3,0.7-0.5,1
			l-2.1,4h-1.1l-2.1-4c-0.2-0.3-0.3-0.7-0.5-1s-0.3-0.7-0.4-1.1h0c0,0.4,0,0.7,0,1.1c0,0.3,0,0.7-0.1,1l-0.3,4.1h-2.6l0.9-11h2.2
			l2.4,4.6c0.2,0.3,0.3,0.7,0.6,1.1c0.2,0.4,0.4,0.8,0.5,1.2h0c0.1-0.4,0.3-0.8,0.5-1.2c0.2-0.4,0.4-0.8,0.6-1.2l2.4-4.6h2.2l1,11
			H117.3z"/>
		<path class="st0" d="M126.3,31.9c-0.5,1.4-1.1,2.5-1.8,3.3c-0.7,0.8-1.5,1.3-2.4,1.5l-1-1.6c0.3-0.1,0.6-0.2,0.8-0.4
			s0.5-0.3,0.7-0.6c0.2-0.2,0.4-0.5,0.6-0.8c0.2-0.3,0.4-0.7,0.6-1.2l-2.9-7.4h2.5l1.2,3.1c0.1,0.2,0.2,0.5,0.2,0.7
			c0.1,0.2,0.2,0.5,0.2,0.8h0c0.1-0.3,0.1-0.5,0.2-0.8s0.2-0.5,0.2-0.7l1.2-3.1h2.4L126.3,31.9z"/>
		<path class="st0" d="M135.5,26.8h-2.2v2.8c0,0.3,0.1,0.5,0.3,0.7c0.2,0.2,0.4,0.2,0.7,0.2c0.3,0,0.6,0,0.8-0.1l-0.2,2.1
			c-0.3,0.1-0.7,0.2-1.2,0.2c-0.4,0-0.8-0.1-1.2-0.2s-0.7-0.3-0.9-0.6c-0.3-0.2-0.5-0.5-0.6-0.9c-0.1-0.3-0.2-0.7-0.2-1.1v-3.2h-1.3
			v-2.1h1.4v-1.5l2.4-0.9v2.4h2.4L135.5,26.8z"/>
		<path class="st0" d="M141.8,32.6v-4.7c0-0.3-0.1-0.5-0.3-0.8c-0.2-0.2-0.5-0.3-0.9-0.3c-0.4,0-0.7,0.1-0.9,0.3
			c-0.2,0.2-0.3,0.5-0.3,0.8v4.6h-2.5V20.3h2.5v5c0.3-0.2,0.5-0.4,0.9-0.5c0.3-0.1,0.7-0.2,1.2-0.2c0.4,0,0.8,0.1,1.2,0.2
			c0.4,0.1,0.7,0.3,0.9,0.6c0.3,0.2,0.5,0.5,0.6,0.9s0.2,0.7,0.2,1.2v5.2H141.8z"/>
		<path class="st0" d="M151.1,26.8c-0.3,0-0.7,0.1-1,0.2c-0.3,0.1-0.6,0.3-0.8,0.5c-0.2,0.2-0.4,0.5-0.6,0.8s-0.2,0.7-0.2,1.2v3.1
			H146v-7.8h2.3l0.1,1.2c0.2-0.5,0.6-0.8,1.1-1.1s1-0.3,1.7-0.3l0.2,2.2H151.1z"/>
		<path class="st0" d="M155.2,22.2c0,0.1,0,0.2-0.1,0.4s-0.2,0.3-0.4,0.4c-0.1,0.1-0.3,0.3-0.4,0.3c-0.1,0.1-0.3,0.1-0.4,0.1
			s-0.2,0-0.4-0.1c-0.1-0.1-0.3-0.2-0.4-0.3s-0.2-0.3-0.3-0.4s-0.1-0.3-0.1-0.4s0-0.2,0.1-0.4s0.2-0.3,0.3-0.4
			c0.1-0.1,0.3-0.3,0.4-0.4s0.3-0.1,0.4-0.1s0.2,0,0.4,0.1s0.3,0.2,0.4,0.4c0.1,0.1,0.3,0.3,0.4,0.4S155.2,22.1,155.2,22.2z
			 M152.6,32.6v-7.8h2.6v7.8H152.6z"/>
	</g>
	<g>
		<g>
			<path class="st0" d="M58.8,45.1h-0.2l-0.5-2.9c0-0.2-0.1-0.5-0.1-0.7c0-0.2-0.1-0.5-0.1-0.8h0c-0.1,0.3-0.2,0.5-0.4,0.8
				s-0.2,0.5-0.3,0.7l-1.5,2.9h-0.2l-0.9-5h0.5l0.4,2.6c0,0.2,0.1,0.4,0.1,0.6c0,0.2,0.1,0.4,0.1,0.7h0c0.1-0.2,0.2-0.4,0.3-0.7
				c0.1-0.2,0.2-0.4,0.3-0.6l1.3-2.6h0.4l0.4,2.6c0,0.2,0.1,0.4,0.1,0.6c0,0.2,0.1,0.4,0.1,0.7h0c0.1-0.2,0.2-0.4,0.3-0.7
				c0.1-0.2,0.2-0.4,0.3-0.6l1.3-2.6h0.5L58.8,45.1z"/>
			<path class="st0" d="M61.9,45.1h-0.5l0.6-3.5h0.5L61.9,45.1z M62.8,40.5c0,0,0,0.1,0,0.1c0,0-0.1,0.1-0.1,0.1
				c0,0-0.1,0.1-0.1,0.1c0,0-0.1,0-0.1,0s-0.1,0-0.1,0c0,0-0.1-0.1-0.1-0.1c0,0,0-0.1-0.1-0.1c0,0,0-0.1,0-0.1c0,0,0-0.1,0-0.1
				c0,0,0.1-0.1,0.1-0.1c0,0,0.1-0.1,0.1-0.1c0,0,0.1,0,0.1,0c0,0,0.1,0,0.1,0c0,0,0.1,0.1,0.1,0.1c0,0,0,0.1,0.1,0.1
				C62.8,40.4,62.8,40.4,62.8,40.5z"/>
			<path class="st0" d="M66.4,42.4c0,0.1,0,0.2,0,0.2l-0.4,2.4h-0.5l0.4-2.4c0,0,0-0.1,0-0.1s0-0.1,0-0.1c0-0.2,0-0.3-0.1-0.4
				c-0.1-0.1-0.2-0.2-0.4-0.2c-0.2,0-0.3,0-0.5,0.1s-0.3,0.2-0.5,0.4c-0.2,0.2-0.3,0.4-0.4,0.7c-0.1,0.3-0.2,0.6-0.3,1l-0.2,1H63
				l0.6-3.5H64l-0.2,1l0,0c0.1-0.1,0.1-0.3,0.2-0.4c0.1-0.1,0.2-0.3,0.3-0.4s0.3-0.2,0.4-0.3s0.3-0.1,0.5-0.1c0.1,0,0.2,0,0.4,0.1
				c0.1,0,0.2,0.1,0.3,0.2c0.1,0.1,0.2,0.2,0.2,0.3C66.4,42.1,66.4,42.2,66.4,42.4z"/>
			<path class="st0" d="M72.2,45.1l-0.3-1.4h-2.1L69,45.1h-0.5l2.9-5h0.2l1.2,5H72.2z M71.4,41.7c0-0.1,0-0.2-0.1-0.4s0-0.3-0.1-0.4
				h0c-0.1,0.1-0.1,0.3-0.2,0.4c-0.1,0.1-0.1,0.2-0.2,0.4L70,43.3h1.7L71.4,41.7z"/>
			<path class="st0" d="M76.4,40c-0.1,0-0.1,0-0.2,0c-0.1,0-0.2,0-0.3,0c-0.2,0-0.3,0-0.4,0.1c-0.1,0.1-0.2,0.1-0.3,0.2
				s-0.2,0.2-0.3,0.4c-0.1,0.1-0.1,0.3-0.1,0.4l-0.1,0.5h1.1l-0.1,0.4h-1l-0.5,3.1h-0.5l0.6-3.1h-0.6l0.1-0.4h0.6l0.1-0.3
				c0.1-0.5,0.3-1,0.6-1.3c0.3-0.3,0.7-0.4,1.1-0.4c0.1,0,0.2,0,0.3,0c0.1,0,0.2,0,0.2,0L76.4,40z"/>
			<path class="st0" d="M78.8,40c-0.1,0-0.1,0-0.2,0c-0.1,0-0.2,0-0.3,0c-0.2,0-0.3,0-0.4,0.1c-0.1,0.1-0.2,0.1-0.3,0.2
				s-0.2,0.2-0.3,0.4c-0.1,0.1-0.1,0.3-0.1,0.4l-0.1,0.5h1.1l-0.1,0.4h-1l-0.5,3.1H76l0.6-3.1H76l0.1-0.4h0.6l0.1-0.3
				c0.1-0.5,0.3-1,0.6-1.3c0.3-0.3,0.7-0.4,1.1-0.4c0.1,0,0.2,0,0.3,0c0.1,0,0.2,0,0.2,0L78.8,40z"/>
			<path class="st0" d="M81.8,42.9c0,0.3-0.1,0.6-0.2,0.9c-0.1,0.3-0.3,0.5-0.5,0.7c-0.2,0.2-0.4,0.4-0.7,0.5
				c-0.3,0.1-0.5,0.2-0.8,0.2c-0.4,0-0.8-0.1-1-0.4c-0.2-0.3-0.4-0.6-0.4-1c0-0.3,0.1-0.6,0.2-0.9s0.3-0.5,0.5-0.7
				c0.2-0.2,0.4-0.4,0.7-0.5c0.3-0.1,0.5-0.2,0.8-0.2c0.4,0,0.8,0.1,1,0.4C81.7,42.1,81.8,42.5,81.8,42.9z M81.3,42.9
				c0-0.3-0.1-0.6-0.2-0.8s-0.4-0.3-0.7-0.3c-0.2,0-0.4,0-0.6,0.1c-0.2,0.1-0.4,0.2-0.5,0.4c-0.1,0.2-0.3,0.4-0.4,0.6
				c-0.1,0.2-0.1,0.4-0.1,0.7c0,0.3,0.1,0.6,0.2,0.7c0.2,0.2,0.4,0.3,0.7,0.3c0.2,0,0.4,0,0.6-0.1c0.2-0.1,0.4-0.2,0.5-0.4
				c0.1-0.2,0.3-0.4,0.4-0.6C81.3,43.4,81.3,43.2,81.3,42.9z"/>
			<path class="st0" d="M84.7,41.9c-0.2,0-0.3,0.1-0.5,0.2s-0.3,0.3-0.5,0.5c-0.2,0.2-0.3,0.4-0.4,0.7c-0.1,0.3-0.2,0.6-0.3,0.9
				l-0.1,0.8h-0.5l0.6-3.5h0.4l-0.2,1.2l0,0c0-0.1,0.1-0.3,0.2-0.4s0.2-0.3,0.3-0.4s0.3-0.2,0.4-0.3s0.3-0.1,0.5-0.1l0.1,0.4H84.7z"
				/>
			<path class="st0" d="M87.9,45.1h-0.4l0.2-1l0,0c-0.1,0.3-0.4,0.6-0.6,0.8s-0.6,0.3-0.9,0.3c-0.1,0-0.3,0-0.4-0.1
				s-0.2-0.1-0.3-0.2c-0.1-0.1-0.2-0.2-0.2-0.4C85,44.3,85,44.1,85,43.9c0-0.4,0.1-0.7,0.2-1c0.1-0.3,0.3-0.5,0.6-0.8
				c0.2-0.2,0.5-0.4,0.8-0.5c0.3-0.1,0.6-0.2,0.9-0.2c0.2,0,0.4,0,0.5,0l0.4-2h0.5L87.9,45.1z M87.7,42c-0.1,0-0.2,0-0.3,0
				c-0.3,0-0.5,0-0.7,0.2s-0.4,0.2-0.6,0.4c-0.2,0.2-0.3,0.4-0.4,0.6c-0.1,0.2-0.2,0.5-0.2,0.8c0,0.2,0.1,0.4,0.2,0.6
				c0.1,0.1,0.3,0.2,0.5,0.2c0.1,0,0.3,0,0.5-0.1c0.2-0.1,0.3-0.2,0.5-0.4s0.3-0.4,0.4-0.6c0.1-0.3,0.2-0.5,0.3-0.9l0.1-0.7
				C87.9,42,87.8,42,87.7,42z"/>
			<path class="st0" d="M91.7,45.1h-0.4l0.2-1l0,0c-0.1,0.3-0.4,0.6-0.6,0.8c-0.3,0.2-0.6,0.3-0.9,0.3c-0.1,0-0.3,0-0.4-0.1
				s-0.2-0.1-0.3-0.2c-0.1-0.1-0.2-0.2-0.2-0.3c-0.1-0.1-0.1-0.3-0.1-0.5c0-0.4,0.1-0.7,0.2-1c0.1-0.3,0.3-0.6,0.6-0.8
				s0.5-0.4,0.8-0.5c0.3-0.1,0.6-0.2,0.9-0.2c0.4,0,0.7,0,0.9,0.1L91.7,45.1z M91.4,41.9c-0.3,0-0.5,0.1-0.8,0.2
				c-0.2,0.1-0.5,0.2-0.6,0.4s-0.3,0.4-0.4,0.7s-0.2,0.5-0.2,0.8c0,0.2,0.1,0.4,0.2,0.5s0.3,0.2,0.5,0.2c0.1,0,0.3,0,0.5-0.1
				c0.2-0.1,0.3-0.2,0.5-0.4c0.1-0.2,0.3-0.4,0.4-0.6c0.1-0.3,0.2-0.5,0.3-0.9l0.1-0.7C91.7,42,91.6,41.9,91.4,41.9z"/>
			<path class="st0" d="M96.2,42.7c0,0.4-0.1,0.7-0.2,1c-0.1,0.3-0.3,0.6-0.5,0.8c-0.2,0.2-0.5,0.4-0.7,0.5
				c-0.3,0.1-0.6,0.2-0.9,0.2c-0.2,0-0.5,0-0.7-0.1c-0.2-0.1-0.4-0.1-0.5-0.2l0.9-5.3h0.5l-0.5,3l0,0c0.1-0.1,0.1-0.3,0.2-0.4
				c0.1-0.1,0.2-0.2,0.3-0.3s0.3-0.2,0.4-0.2s0.3-0.1,0.5-0.1c0.1,0,0.3,0,0.4,0.1s0.2,0.1,0.3,0.2c0.1,0.1,0.2,0.2,0.2,0.4
				S96.2,42.5,96.2,42.7z M95.7,42.7c0-0.2-0.1-0.4-0.2-0.6s-0.3-0.2-0.5-0.2c-0.1,0-0.3,0-0.5,0.1c-0.2,0.1-0.3,0.2-0.5,0.4
				s-0.3,0.4-0.4,0.6c-0.1,0.3-0.2,0.5-0.3,0.9l-0.1,0.6c0.1,0,0.1,0.1,0.3,0.1c0.1,0,0.2,0,0.4,0c0.2,0,0.4-0.1,0.7-0.2
				c0.2-0.1,0.4-0.2,0.6-0.4c0.2-0.2,0.3-0.4,0.4-0.6C95.7,43.3,95.7,43,95.7,42.7z"/>
			<path class="st0" d="M97.3,45.1h-0.5l0.6-3.5h0.5L97.3,45.1z M98.2,40.5c0,0,0,0.1,0,0.1c0,0-0.1,0.1-0.1,0.1
				c0,0-0.1,0.1-0.1,0.1c0,0-0.1,0-0.1,0s-0.1,0-0.1,0c0,0-0.1-0.1-0.1-0.1c0,0,0-0.1-0.1-0.1c0,0,0-0.1,0-0.1c0,0,0-0.1,0-0.1
				c0,0,0.1-0.1,0.1-0.1c0,0,0.1-0.1,0.1-0.1c0,0,0.1,0,0.1,0c0,0,0.1,0,0.1,0c0,0,0.1,0.1,0.1,0.1c0,0,0,0.1,0.1,0.1
				C98.2,40.4,98.2,40.4,98.2,40.5z"/>
			<path class="st0" d="M99.2,44.3C99.2,44.3,99.2,44.3,99.2,44.3c0,0.1,0,0.1,0,0.2c0,0.1,0,0.2,0.1,0.3c0.1,0.1,0.1,0.1,0.2,0.1
				l-0.3,0.3c-0.1,0-0.3-0.1-0.4-0.2c-0.1-0.1-0.2-0.3-0.2-0.5c0-0.1,0-0.2,0-0.2l0.8-4.7h0.5L99.2,44.3z"/>
			<path class="st0" d="M101,45.1h-0.5l0.6-3.5h0.5L101,45.1z M101.9,40.5c0,0,0,0.1,0,0.1c0,0-0.1,0.1-0.1,0.1c0,0-0.1,0.1-0.1,0.1
				c0,0-0.1,0-0.1,0s-0.1,0-0.1,0c0,0-0.1-0.1-0.1-0.1c0,0,0-0.1-0.1-0.1c0,0,0-0.1,0-0.1c0,0,0-0.1,0-0.1c0,0,0.1-0.1,0.1-0.1
				c0,0,0.1-0.1,0.1-0.1c0,0,0.1,0,0.1,0c0,0,0.1,0,0.1,0c0,0,0.1,0.1,0.1,0.1c0,0,0,0.1,0.1,0.1C101.9,40.4,101.9,40.4,101.9,40.5z
				"/>
			<path class="st0" d="M104.7,41.9h-1.2l-0.4,2.3c0,0.2,0,0.3,0.1,0.4c0.1,0.1,0.2,0.1,0.3,0.1c0.1,0,0.1,0,0.2,0
				c0.1,0,0.1,0,0.2-0.1l-0.1,0.4c-0.1,0.1-0.2,0.1-0.4,0.1c-0.1,0-0.2,0-0.3-0.1c-0.1,0-0.2-0.1-0.2-0.2s-0.1-0.2-0.1-0.3
				c0-0.1,0-0.3,0-0.4l0.4-2.2h-0.7l0.1-0.4h0.7l0.1-0.8l0.5-0.3l-0.2,1h1.2L104.7,41.9z"/>
			<path class="st0" d="M106.5,44.8c-0.2,0.3-0.4,0.6-0.5,0.8s-0.3,0.4-0.5,0.6c-0.2,0.2-0.3,0.3-0.5,0.4c-0.2,0.1-0.3,0.2-0.4,0.3
				l-0.3-0.3c0.3-0.1,0.6-0.3,0.8-0.6c0.3-0.3,0.6-0.7,0.9-1.1l-0.8-3.2h0.5l0.4,1.8c0,0.2,0.1,0.3,0.1,0.4c0,0.1,0.1,0.3,0.1,0.4h0
				c0.1-0.1,0.2-0.3,0.3-0.4c0.1-0.1,0.2-0.3,0.3-0.4l1.1-1.8h0.5L106.5,44.8z"/>
		</g>
	</g>
</g>
</svg>
